Coordinates
version=1
nRows=6
nColumns=63
inDegrees=yes

Units are S.I. units (second, meters, Newtons, ...)
If the header above contains a line with 'inDegrees', this indicates whether rotational values are in degrees (yes) or radians (no).

endheader
time	pelvis_tilt	pelvis_list	pelvis_rotation	pelvis_tx	pelvis_ty	pelvis_tz	hip_flexion_r	hip_adduction_r	hip_rotation_r	knee_angle_r	knee_angle_r_beta	ankle_angle_r	subtalar_angle_r	mtp_angle_r	hip_flexion_l	hip_adduction_l	hip_rotation_l	knee_angle_l	knee_angle_l_beta	ankle_angle_l	subtalar_angle_l	mtp_angle_l	L5_S1_Flex_Ext	L5_S1_Lat_Bending	L5_S1_axial_rotation	L4_L5_Flex_Ext	L4_L5_Lat_Bending	L4_L5_axial_rotation	L3_L4_Flex_Ext	L3_L4_Lat_Bending	L3_L4_axial_rotation	L2_L3_Flex_Ext	L2_L3_Lat_Bending	L2_L3_axial_rotation	L1_L2_Flex_Ext	L1_L2_Lat_Bending	L1_L2_axial_rotation	L1_T12_Flex_Ext	L1_T12_Lat_Bending	L1_T12_axial_rotation	Abs_r3	Abs_r2	Abs_r1	Abs_t1	Abs_t2	neck_flexion	neck_bending	neck_rotation	arm_flex_r	arm_add_r	arm_rot_r	elbow_flex_r	pro_sup_r	wrist_flex_r	wrist_dev_r	arm_flex_l	arm_add_l	arm_rot_l	elbow_flex_l	pro_sup_l	wrist_flex_l	wrist_dev_l
      2.89830508	     -4.07973206	     -7.09565686	     76.25155659	      0.22492132	      0.36692627	      0.94001899	      4.80696909	      0.95873574	      2.00445687	      3.93232266	      0.06863198	     13.62716969	    -17.58419270	      0.00000000	      4.99466798	     -0.26716596	     10.80665229	      6.33027696	      0.11048418	     21.94968020	     -6.14272770	      0.00000000	      0.17129251	     -0.40223885	     -1.77969128	      0.31810731	     -0.53497767	     -1.89092198	      0.28141646	     -0.97800354	     -1.89092198	      0.19577021	     -0.97800354	     -1.55722987	      0.15906222	     -0.82024547	     -1.44599916	      0.09787654	     -0.62306798	     -1.33476846	      1.22352525	     -4.55020633	     -9.89810898	      0.00000000	      0.00000000	     28.25604395	      7.11138733	     -7.73968475	     -3.46254376	    -18.55044386	     -3.18607638	     48.36604550	     85.51242365	    -17.15503464	     -1.53496301	      6.11022622	    -13.37235656	    153.64969193	      1.21567143	      5.50048734	    -15.34599362	     -8.82952146
      2.91525424	     -4.08577343	     -7.09456297	     76.22336997	      0.22468842	      0.36682992	      0.94032668	      4.85335996	      0.93680444	      1.82866047	      3.97744222	      0.06941946	     13.68207548	    -17.44843248	      0.00000000	      4.94640918	     -0.22572590	     11.60677686	      6.16122363	      0.10753364	     21.79599849	     -7.32081009	      0.00000000	      0.15201734	     -0.40058944	     -1.76934695	      0.28231140	     -0.53278396	     -1.87993113	      0.24974929	     -0.97399317	     -1.87993113	      0.17374062	     -0.97399317	     -1.54817858	      0.14116330	     -0.81688199	     -1.43759440	      0.08686271	     -0.62051304	     -1.32701021	      1.08584466	     -4.53154788	     -9.84057693	      0.00000000	      0.00000000	     28.23577042	      6.71417804	     -7.80067653	     -3.47872252	    -18.53541885	     -3.39092616	     48.51788673	     85.49173022	    -17.14368552	     -1.26325984	      6.26820776	    -13.31844693	    153.23467142	      1.23135202	      5.77015873	    -15.20370493	     -8.70841272
      2.93220339	     -4.04174711	     -7.17175764	     75.96971895	      0.22476087	      0.36663074	      0.94081867	      5.01476907	      1.00408788	      1.85259218	      4.01969692	      0.07015695	     13.79397980	    -17.27087635	      0.00000000	      5.02024644	     -0.31709436	     11.26564155	      6.16445776	      0.10759008	     21.90695745	     -7.18530706	      0.00000000	      0.14260472	     -0.38995202	     -1.71743826	      0.26483122	     -0.51863618	     -1.82477815	      0.23428529	     -0.94812933	     -1.82477815	      0.16298293	     -0.94812933	     -1.50275847	      0.13242274	     -0.79519015	     -1.39541858	      0.08148434	     -0.60403567	     -1.28807869	      1.01861124	     -4.41121521	     -9.55187635	      0.00000000	      0.00000000	     28.21965952	      6.33954388	     -7.80597369	     -3.49311272	    -18.56460102	     -3.51979234	     48.61819602	     85.30402224	    -17.37748534	     -1.11627017	      6.41263616	    -13.24620411	    153.32144417	      1.20874482	      5.66435336	    -15.15994995	     -8.54151361
      2.94915254	     -3.95262803	     -7.25456358	     75.96650300	      0.22468031	      0.36644141	      0.94097212	      5.11760897	      1.10666721	      1.56248428	      4.00690229	      0.06993364	     13.99563254	    -17.01280657	      0.00000000	      5.05715484	     -0.41823182	     11.54906814	      6.13205400	      0.10702453	     21.80395084	     -7.59453478	      0.00000000	      0.13837881	     -0.37731617	     -1.69923811	      0.25698329	     -0.50183051	     -1.80544049	      0.22734255	     -0.91740655	     -1.80544049	      0.15815314	     -0.91740655	     -1.48683335	      0.12849856	     -0.76942314	     -1.38063097	      0.07906965	     -0.58446275	     -1.27442858	      0.98842602	     -4.26827603	     -9.45065260	      0.00000000	      0.00000000	     28.21064482	      5.99232792	     -7.96121108	     -3.60064372	    -18.50531181	     -4.01351491	     48.65621564	     85.18281761	    -17.15346644	     -0.95453625	      6.50950794	    -13.16726262	    152.86224012	      1.22466099	      5.80909118	    -15.24081355	     -8.56584850
      2.96610169	     -3.84309640	     -7.35949560	     75.84297392	      0.22485516	      0.36627411	      0.94112044	      5.23158599	      1.25033322	      1.53875040	      3.97181436	      0.06932124	     14.18920745	    -16.78016915	      0.00000000	      5.17078605	     -0.60075946	     10.65708876	      6.26003259	      0.10925818	     22.07122242	     -6.49624108	      0.00000000	      0.14277381	     -0.36187443	     -1.65137188	      0.26514525	     -0.48129299	     -1.75458262	      0.23456310	     -0.87986148	     -1.75458262	      0.16317619	     -0.87986148	     -1.44495039	      0.13257976	     -0.73793433	     -1.34173965	      0.08158096	     -0.56054349	     -1.23852891	      1.01981907	     -4.09359590	     -9.18443497	      0.00000000	      0.00000000	     28.21251973	      5.92554142	     -8.09844447	     -3.75920980	    -18.51327695	     -4.30942442	     48.65230146	     84.78366137	    -17.19880799	     -0.85930747	      6.60265518	    -13.09572889	    152.98098008	      1.21815779	      5.26045469	    -15.22275170	     -8.62571516
      2.98305085	     -3.70743699	     -7.46470179	     75.76609931	      0.22496373	      0.36612037	      0.94110797	      5.31304956	      1.41845450	      1.62046781	      3.92266569	      0.06846343	     14.29305615	    -16.72481705	      0.00000000	      5.24211808	     -0.80145433	      9.92293669	      6.33135268	      0.11050295	     22.26452034	     -5.52851185	      0.00000000	      0.15338079	     -0.34233992	     -1.61002174	      0.28484346	     -0.45531209	     -1.71064810	      0.25198930	     -0.83236527	     -1.71064810	      0.17529890	     -0.83236527	     -1.40876902	      0.14242940	     -0.69809956	     -1.30814266	      0.08764178	     -0.53028453	     -1.20751630	      1.09558364	     -3.87261759	     -8.95445789	      0.00000000	      0.00000000	     28.22091786	      6.01382357	     -8.22891026	     -3.98236657	    -18.48265447	     -4.84823198	     48.64567319	     84.36610073	    -16.80940479	     -0.78308564	      6.65380136	    -13.00206291	    152.18162697	      1.24244048	      5.14092084	    -15.01129585	     -8.92157075
